<svg width="185" height="185" viewBox="0 0 185 185" fill="none" xmlns="http://www.w3.org/2000/svg">
<path fill-rule="evenodd" clip-rule="evenodd" d="M92.5 185C143.586 185 185 143.586 185 92.5C185 41.4137 143.586 0 92.5 0C41.4137 0 0 41.4137 0 92.5C0 143.586 41.4137 185 92.5 185ZM92.5 16.845C50.4695 17.1734 16.9474 50.4711 17.4361 92.5C17.919 134.036 50.9629 167.535 92.5 167.859C134.364 168.186 167.668 134.363 168.155 92.5C168.647 50.1478 134.854 16.5142 92.5 16.845ZM92.5 33.6901C97.3992 33.6901 101.07 36.9409 101.07 42.8514V86.5895L128.259 100.775C133.874 104.026 135.712 107.361 133.578 112.005C131.281 117.005 127.372 118.506 119.984 114.96L90.4313 100.775C85.1118 97.8195 83.9297 96.0463 83.9297 88.9537V42.8514C83.9297 37.5319 87.6008 33.6901 92.5 33.6901Z" fill="#00E9DD"/>
</svg>
