<svg width="170" height="109" viewBox="0 0 170 109" fill="none" xmlns="http://www.w3.org/2000/svg">
<path d="M140.784 3C146.324 3.00009 150.814 6.30549 150.814 10.3828C150.814 10.5453 150.804 10.7063 150.79 10.8662C155.337 10.9254 159 13.9554 159 17.6855C159 21.4526 155.263 24.5059 150.654 24.5059C150.438 24.5059 150.223 24.4966 150.011 24.4834C149.976 29.8196 145.033 34.1356 138.938 34.1357C136.293 34.1357 133.864 33.3214 131.959 31.9639C129.942 34.0596 126.703 35.4198 123.05 35.4199C116.934 35.4199 111.976 31.6117 111.976 26.9141C111.976 25.4373 112.465 24.0482 113.327 22.8379C109.454 21.2043 107 18.7841 107 16.0801C107 11.1607 115.12 7.17285 125.136 7.17285C127.347 7.17285 129.466 7.36675 131.426 7.72266C132.877 4.96013 136.519 3 140.784 3Z" fill="#C9C9C9"/>
<path d="M41.2051 35C28.6738 35 18.5146 42.4772 18.5146 51.7002C18.5147 52.0671 18.5328 52.431 18.5645 52.792C8.28307 52.9288 0.000198364 59.7822 0 68.2178C0 76.7391 8.45188 83.6475 18.8779 83.6475C19.3672 83.6475 19.8521 83.6314 20.332 83.6016C20.4154 95.6693 31.597 105.43 45.3799 105.43C51.3639 105.43 56.8568 103.588 61.165 100.519C65.7275 105.259 73.0562 108.334 81.3203 108.334C95.1549 108.334 106.37 99.7193 106.37 89.0928C106.37 85.7544 105.264 82.6144 103.316 79.8779C112.076 76.1828 117.624 70.7039 117.624 64.5879C117.624 53.4601 99.2572 44.4395 76.6006 44.4395C71.5999 44.4395 66.8083 44.879 62.377 45.6836C59.0961 39.4336 50.8543 35.0001 41.2051 35Z" fill="#C9C9C9"/>
<path d="M151.784 68C157.324 68.0001 161.814 71.3055 161.814 75.3828C161.814 75.5453 161.804 75.7063 161.79 75.8662C166.337 75.9254 170 78.9554 170 82.6855C170 86.4526 166.263 89.5059 161.654 89.5059C161.438 89.5059 161.223 89.4966 161.011 89.4834C160.976 94.8196 156.033 99.1356 149.938 99.1357C147.293 99.1357 144.864 98.3214 142.959 96.9639C140.942 99.0596 137.703 100.42 134.05 100.42C127.934 100.42 122.976 96.6117 122.976 91.9141C122.976 90.4373 123.465 89.0482 124.327 87.8379C120.454 86.2043 118 83.7841 118 81.0801C118 76.1607 126.12 72.1729 136.136 72.1729C138.347 72.1729 140.466 72.3668 142.426 72.7227C143.877 69.9601 147.519 68 151.784 68Z" fill="#C9C9C9"/>
<path d="M151.784 68C157.324 68.0001 161.814 71.3055 161.814 75.3828C161.814 75.5453 161.804 75.7063 161.79 75.8662C166.337 75.9254 170 78.9554 170 82.6855C170 86.4526 166.263 89.5059 161.654 89.5059C161.438 89.5059 161.223 89.4966 161.011 89.4834C160.976 94.8196 156.033 99.1356 149.938 99.1357C147.293 99.1357 144.864 98.3214 142.959 96.9639C140.942 99.0596 137.703 100.42 134.05 100.42C127.934 100.42 122.976 96.6117 122.976 91.9141C122.976 90.4373 123.465 89.0482 124.327 87.8379C120.454 86.2043 118 83.7841 118 81.0801C118 76.1607 126.12 72.1729 136.136 72.1729C138.347 72.1729 140.466 72.3668 142.426 72.7227C143.877 69.9601 147.519 68 151.784 68Z" fill="#C9C9C9"/>
<path fill-rule="evenodd" clip-rule="evenodd" d="M44.7129 0C40.2385 2.31415e-05 36.6115 2.66972 36.6113 5.96289C36.6113 6.09415 36.6195 6.22437 36.6309 6.35352C32.9587 6.40149 30 8.84863 30 11.8613C30 14.904 33.0184 17.3701 36.7412 17.3701C36.9161 17.3701 37.0892 17.3623 37.2607 17.3516C37.2889 21.6618 41.2816 25.1484 46.2041 25.1484C48.3412 25.1484 50.3024 24.49 51.8408 23.3936C53.4699 25.0865 56.086 26.1855 59.0371 26.1855C63.9768 26.1855 67.9811 23.1096 67.9814 19.3154C67.9814 18.1225 67.5859 17.0001 66.8896 16.0225C70.0174 14.7031 71.9997 12.7492 72 10.5654C72 6.59203 65.4416 3.37012 57.3516 3.37012C55.5655 3.37014 53.8541 3.52702 52.2715 3.81445C51.0997 1.58322 48.1579 0 44.7129 0Z" fill="#C9C9C9"/>
</svg>
