<svg width="118" height="96" viewBox="0 0 118 96" fill="none" xmlns="http://www.w3.org/2000/svg">
<path d="M60.521 70.8736C60.7948 71.0907 61.1538 71.3979 61.5226 71.7836C62.3095 72.6065 63.097 73.7305 63.2896 75.0309C63.3818 75.6533 63.3236 76.3905 63.0779 77.0127C62.8348 77.6284 62.4297 78.0857 61.8461 78.2751C61.1711 78.494 60.6138 78.3328 60.1674 77.9469C59.6997 77.5425 59.3408 76.8734 59.1879 76.0992C58.9738 75.0149 59.3417 73.6051 59.8236 72.3908C60.0586 71.7988 60.3098 71.2812 60.5018 70.9112C60.5083 70.8986 60.5146 70.8859 60.521 70.8736Z" fill="#42D2C5" stroke="#42D2C5" stroke-width="1.12472"/>
<path d="M21.521 65.8736C21.7948 66.0907 22.1538 66.3979 22.5226 66.7836C23.3095 67.6065 24.097 68.7305 24.2896 70.0309C24.3818 70.6533 24.3236 71.3905 24.0779 72.0127C23.8348 72.6284 23.4297 73.0857 22.8461 73.2751C22.1711 73.494 21.6138 73.3328 21.1674 72.9469C20.6997 72.5425 20.3408 71.8734 20.1879 71.0992C19.9738 70.0149 20.3417 68.6051 20.8236 67.3908C21.0586 66.7988 21.3098 66.2812 21.5018 65.9112C21.5083 65.8986 21.5146 65.8859 21.521 65.8736Z" fill="#42D2C5" stroke="#42D2C5" stroke-width="1.12472"/>
<path d="M46.521 86.8736C46.7948 87.0907 47.1538 87.3979 47.5226 87.7836C48.3095 88.6065 49.097 89.7305 49.2896 91.0309C49.3818 91.6533 49.3236 92.3905 49.0779 93.0127C48.8348 93.6284 48.4297 94.0857 47.8461 94.2751C47.1711 94.494 46.6138 94.3328 46.1674 93.9469C45.6997 93.5425 45.3408 92.8734 45.1879 92.0992C44.9738 91.0149 45.3417 89.6051 45.8236 88.3908C46.0586 87.7988 46.3098 87.2812 46.5018 86.9112C46.5083 86.8986 46.5146 86.8859 46.521 86.8736Z" fill="#42D2C5" stroke="#42D2C5" stroke-width="1.12472"/>
<path d="M87.521 78.8736C87.7948 79.0907 88.1538 79.3979 88.5226 79.7836C89.3095 80.6065 90.097 81.7305 90.2896 83.0309C90.3818 83.6533 90.3236 84.3905 90.0779 85.0127C89.8348 85.6284 89.4297 86.0857 88.8461 86.2751C88.1711 86.494 87.6138 86.3328 87.1674 85.9469C86.6997 85.5425 86.3408 84.8734 86.1879 84.0992C85.9738 83.0149 86.3417 81.6051 86.8236 80.3908C87.0586 79.7988 87.3098 79.2812 87.5018 78.9112C87.5083 78.8986 87.5146 78.8859 87.521 78.8736Z" fill="#42D2C5" stroke="#42D2C5" stroke-width="1.12472"/>
<path d="M111.521 64.8736C111.795 65.0907 112.154 65.3979 112.523 65.7836C113.31 66.6065 114.097 67.7305 114.29 69.0309C114.382 69.6533 114.324 70.3905 114.078 71.0127C113.835 71.6284 113.43 72.0857 112.846 72.2751C112.171 72.494 111.614 72.3328 111.167 71.9469C110.7 71.5425 110.341 70.8734 110.188 70.0992C109.974 69.0149 110.342 67.6051 110.824 66.3908C111.059 65.7988 111.31 65.2812 111.502 64.9112C111.508 64.8986 111.515 64.8859 111.521 64.8736Z" fill="#42D2C5" stroke="#42D2C5" stroke-width="1.12472"/>
<path d="M41.2051 0C28.6738 0 18.5146 7.47715 18.5146 16.7002C18.5147 17.0671 18.5328 17.431 18.5645 17.792C8.28307 17.9288 0.000200408 24.7822 0 33.2178C0 41.7391 8.45188 48.6475 18.8779 48.6475C19.3672 48.6475 19.8521 48.6314 20.332 48.6016C20.4154 60.6693 31.597 70.4297 45.3799 70.4297C51.3639 70.4296 56.8568 68.5882 61.165 65.5186C65.7275 70.2591 73.0562 73.3339 81.3203 73.334C95.1549 73.334 106.37 64.7193 106.37 54.0928C106.37 50.7544 105.264 47.6144 103.316 44.8779C112.076 41.1828 117.624 35.7039 117.624 29.5879C117.624 18.4601 99.2572 9.43945 76.6006 9.43945C71.5999 9.43948 66.8083 9.879 62.377 10.6836C59.0961 4.43359 50.8543 0.000111003 41.2051 0Z" fill="#C9C9C9"/>
</svg>
