<svg width="212" height="204" viewBox="0 0 212 204" fill="none" xmlns="http://www.w3.org/2000/svg">
<path fill-rule="evenodd" clip-rule="evenodd" d="M107.326 52.7114C135.219 53.4468 157.849 74.7786 157.849 102C157.849 129.221 135.219 150.553 107.326 151.289C78.6486 152.045 53.9971 129.988 53.9971 102C53.9971 74.0122 78.6486 51.9552 107.326 52.7114ZM138.201 102C137.461 85.3804 124.362 72.6017 107.326 71.8791C89.4997 71.123 74.4199 84.6085 73.6448 102C72.8368 120.13 88.7421 135.647 107.326 134.859C125.153 134.103 138.976 119.391 138.201 102Z" fill="#FECE04"/>
<path d="M63.1504 46.6213L43.39 27.1746C37.462 21.3407 25.5019 32.9074 31.4299 38.7413L51.1903 58.1879C57.1185 64.022 69.0786 52.4554 63.1504 46.6213Z" fill="#FECE04"/>
<path d="M115.747 33.5436V6.16099C115.747 -2.05365 98.9061 -2.05368 98.9061 6.16099V33.5436C98.9061 41.7584 115.747 41.7584 115.747 33.5436Z" fill="#FECE04"/>
<path d="M169.657 27.6381L149.429 46.6213C143.36 52.3162 155.035 64.1568 161.104 58.4619L181.332 39.4787C187.401 33.7837 175.726 21.9431 169.657 27.6381Z" fill="#FECE04"/>
<path d="M205.497 90.9366L177.429 91.0472C169.008 91.0803 169.076 107.51 177.497 107.477L205.565 107.366C213.985 107.333 213.917 90.9034 205.497 90.9366Z" fill="#FECE04"/>
<path d="M181.617 161.443L161.857 141.997C155.929 136.163 143.969 147.729 149.897 153.563L169.657 173.01C175.585 178.844 187.545 167.277 181.617 161.443Z" fill="#FECE04"/>
<path d="M115.747 197.839V170.456C115.747 162.242 98.9061 162.242 98.9061 170.456V197.839C98.9061 206.054 115.747 206.054 115.747 197.839Z" fill="#FECE04"/>
<path d="M51.4753 142.186L31.2469 161.169C25.1785 166.864 36.8536 178.705 42.922 173.01L63.1504 154.027C69.219 148.332 57.5439 136.491 51.4753 142.186Z" fill="#FECE04"/>
<path d="M34.3492 90.9365L6.28129 91.047C-2.13893 91.0802 -2.07098 107.51 6.34928 107.476L34.4172 107.366C42.8377 107.333 42.7696 90.9033 34.3492 90.9365Z" fill="#FECE04"/>
</svg>
