<svg width="121" height="185" viewBox="0 0 121 185" fill="none" xmlns="http://www.w3.org/2000/svg">
<path fill-rule="evenodd" clip-rule="evenodd" d="M0.449765 102.53C3.7666 85.2654 19.4058 45.8883 60.1528 0C80.4224 23.5987 120.962 77.4106 120.962 103.869C120.962 134.812 97.5824 160.326 67.4291 163.901V185H57.0344V164.251C24.8999 162.638 -3.97264 132.62 0.449765 102.53ZM93.4157 70.2108C98.9346 79.1265 104.908 88.8792 106.047 98.0278C106.437 100.523 106.51 102.53 106.409 103.869C106.409 126.948 89.6163 146.647 67.4291 149.91V146.243L95.4946 114.204L88.2184 107.486L67.4291 125.056V111.103L93.4157 85.2654L85.6197 76.9972L67.4291 93.5335V64.0782H57.0344V93.5335L37.8043 76.9972L29.4886 85.2654L57.0344 111.103V125.056L34.1662 107.486L26.89 114.204L57.0344 146.243V150.218C33.3087 148.198 13.7171 127.946 13.7171 103.869C15.3803 90.2263 21.7371 77.7256 25.8789 70.2108C36.935 50.1506 60.1528 20.6704 60.1528 20.6704L93.4157 70.2108Z" fill="#6EED62"/>
</svg>
