<svg width="18" height="18" viewBox="0 0 18 18" fill="none" xmlns="http://www.w3.org/2000/svg">
<path fill-rule="evenodd" clip-rule="evenodd" d="M9 18C13.9706 18 18 13.9706 18 9C18 4.02944 13.9706 0 9 0C4.02944 0 0 4.02944 0 9C0 13.9706 4.02944 18 9 18ZM9 1.68C4.95728 1.68 1.68 4.95728 1.68 9C1.68 13.0427 4.95728 16.32 9 16.32C13.0427 16.32 16.32 13.0427 16.32 9C16.32 4.95728 13.0427 1.68 9 1.68Z" fill="#3CEEDF"/>
<path d="M9.12 13.08C8.4 13.08 8.28 12.36 8.28 12.36V9C8.28 9 8.4 8.16 9.12 8.16C9.84 8.16 9.96 9 9.96 9V12.36C9.96 12.36 9.84 13.08 9.12 13.08Z" fill="#3CEEDF"/>
<path d="M9.12 6.6C8.68795 6.6 8.31314 6.19078 8.28 5.76C8.24442 5.29745 8.65608 4.92 9.12 4.92C9.58392 4.92 9.99558 5.29745 9.96 5.76C9.92686 6.19078 9.55205 6.6 9.12 6.6Z" fill="#3CEEDF"/>
</svg>
