<svg width="43" height="44" viewBox="0 0 43 44" fill="none" xmlns="http://www.w3.org/2000/svg">
<path d="M21.5 2C10.736 2 2 10.736 2 21.5C2 32.264 10.736 41 21.5 41C32.264 41 41 32.264 41 21.5C41 10.736 32.264 2 21.5 2ZM21.5 9.8C25.2635 9.8 28.325 12.8615 28.325 16.625C28.325 20.3885 25.2635 23.45 21.5 23.45C17.7365 23.45 14.675 20.3885 14.675 16.625C14.675 12.8615 17.7365 9.8 21.5 9.8ZM21.5 37.1C17.5415 37.1 12.8615 35.501 9.527 31.484C12.8225 28.91 16.976 27.35 21.5 27.35C26.024 27.35 30.1775 28.91 33.473 31.484C30.1385 35.501 25.4585 37.1 21.5 37.1Z" fill="#410B2B"/>
</svg>
