<svg width="21" height="21" viewBox="0 0 21 21" fill="none" xmlns="http://www.w3.org/2000/svg">
<path d="M10.0599 8.25H13.1407C13.4132 8.33333 13.9581 8.675 13.9581 9.375C13.9581 10.075 13.4132 10.375 13.1407 10.4375H10.0599C9.78743 10.3542 9.24251 10.025 9.24251 9.375C9.24251 8.725 9.78743 8.35417 10.0599 8.25Z" fill="white"/>
<path d="M10.0599 7H15.4042C15.7395 6.91667 16.2844 6.575 16.2844 5.875C16.2844 5.175 15.7395 4.79167 15.4042 4.6875H10.0599C9.74551 4.79167 9.29281 5.15 9.24251 5.75C9.19221 6.35 9.70359 6.83333 10.0599 7Z" fill="white"/>
<path fill-rule="evenodd" clip-rule="evenodd" d="M2.70359 21H17.6677C18.7156 20.6458 20.8491 19.4375 21 17.4375V2.875C20.8952 2.14583 20.2078 0.55 18.2964 0H7.54491C6.81138 0.0833333 5.23114 0.65 4.77844 2.25L4.65269 3.5625H2.70359C2.03293 3.625 0.553293 4.175 0 5.875V17.875C0.0209581 18.625 0.591018 20.3 2.70359 21ZM2.26347 6.8125V17.4375C2.32635 17.8958 2.64072 18.8 3.39521 18.75C4.1497 18.7 4.5479 17.8542 4.65269 17.4375V5.75H3.14371C2.54012 5.8 2.30539 6.47917 2.26347 6.8125ZM17.2275 18.75H6.47605C6.77784 18.3 6.89521 17.6875 6.91617 17.4375V3.3125C7.01677 2.5125 7.62874 2.27083 7.92216 2.25H17.7934C18.4976 2.45 18.7156 3.04167 18.7365 3.3125C18.6527 5.20833 18.5353 10.6375 18.7365 17.1875C18.5856 18.2375 17.6677 18.6667 17.2275 18.75Z" fill="white"/>
</svg>
