<svg width="24" height="23" viewBox="0 0 24 23" fill="none" xmlns="http://www.w3.org/2000/svg">
<path fill-rule="evenodd" clip-rule="evenodd" d="M6.93414 0.187641C4.07713 0.777026 1.57659 2.97547 0.548944 5.80125L0.14297 6.91783C0.14297 6.91783 -0.0337957 8.00991 0.00577426 8.7112C0.0514061 9.51991 0.437267 10.74 0.437267 10.74C0.909614 12.1996 1.59129 13.2747 2.74141 14.3734C5.76015 17.2575 10.2574 17.6377 13.7851 15.307L14.4988 14.8353L15.1815 15.4911L15.8641 16.1468L15.5022 16.6719L15.1405 17.197L15.2774 17.4343C15.3526 17.5649 16.5347 18.7436 17.9042 20.0538L20.3942 22.4361H20.9364H21.4786L22.2303 21.8029C23.0313 21.1282 23.3378 20.5428 23.1922 19.9645C23.0756 19.5007 18.1641 14.7564 17.8007 14.7564C17.6556 14.7564 17.3792 14.9015 17.1865 15.0791L16.8359 15.4017L16.1082 14.6939L15.3805 13.9861L15.8142 13.4061C17.9875 10.499 18.0799 6.69317 16.0483 3.75777C14.0539 0.875882 10.4468 -0.537009 6.93414 0.187641ZM16.6455 17.1604C16.6455 17.0913 16.8702 16.8136 17.1449 16.5434C17.4197 16.2731 17.6769 16.0521 17.7167 16.0521C17.8559 16.0521 22.0406 20.1318 22.0406 20.2674C22.0406 20.343 21.7968 20.6335 21.4987 20.9129L20.9567 21.4213L18.8011 19.3536C17.6155 18.2164 16.6455 17.2294 16.6455 17.1604ZM8.66858 14.8559C12.2656 14.8559 15.1815 11.94 15.1815 8.34303C15.1815 4.74606 12.2656 1.83014 8.66858 1.83014C5.07161 1.83014 2.15569 4.74606 2.15569 8.34303C2.15569 11.94 5.07161 14.8559 8.66858 14.8559Z" fill="#3CEEDF"/>
</svg>
