<svg width="12" height="13" viewBox="0 0 12 13" fill="none" xmlns="http://www.w3.org/2000/svg">
<path d="M4.36875 12.9723C3.08125 12.6196 2.03125 11.9294 1.21875 10.9019C0.40625 9.87381 0 8.69079 0 7.35281C0 6.65949 0.11875 5.9995 0.35625 5.37284C0.59375 4.74667 0.93125 4.17206 1.36875 3.64904C1.50625 3.50307 1.675 3.42693 1.875 3.42061C2.075 3.41477 2.25625 3.49091 2.41875 3.64904C2.55625 3.78283 2.62825 3.94704 2.63475 4.14166C2.64075 4.33627 2.575 4.51872 2.4375 4.68901C2.1375 5.06608 1.90625 5.47964 1.74375 5.92968C1.58125 6.37973 1.5 6.8541 1.5 7.35281C1.5 8.33805 1.797 9.21698 2.391 9.9896C2.9845 10.7617 3.75 11.2877 4.6875 11.5674C4.85 11.6161 4.9845 11.7073 5.091 11.8411C5.197 11.9749 5.25 12.1209 5.25 12.279C5.25 12.5223 5.1625 12.714 4.9875 12.8541C4.8125 12.9937 4.60625 13.0331 4.36875 12.9723ZM7.63125 12.9723C7.39375 13.0331 7.1875 12.9906 7.0125 12.8446C6.8375 12.6986 6.75 12.504 6.75 12.2608C6.75 12.1148 6.80325 11.9749 6.90975 11.8411C7.01575 11.7073 7.15 11.6161 7.3125 11.5674C8.25 11.2755 9.0155 10.7464 9.609 9.98011C10.203 9.21382 10.5 8.33805 10.5 7.35281C10.5 6.13646 10.0625 5.10257 9.1875 4.25113C8.3125 3.39968 7.25 2.97396 6 2.97396H5.94375L6.24375 3.26589C6.38125 3.39969 6.45 3.56997 6.45 3.77675C6.45 3.98353 6.38125 4.15382 6.24375 4.28762C6.10625 4.42141 5.93125 4.48831 5.71875 4.48831C5.50625 4.48831 5.33125 4.42141 5.19375 4.28762L3.61875 2.75502C3.54375 2.68204 3.49075 2.60298 3.45975 2.51783C3.42825 2.43269 3.4125 2.34146 3.4125 2.24416C3.4125 2.14685 3.42825 2.05562 3.45975 1.97048C3.49075 1.88534 3.54375 1.80627 3.61875 1.73329L5.19375 0.200697C5.33125 0.0668991 5.50625 0 5.71875 0C5.93125 0 6.10625 0.0668991 6.24375 0.200697C6.38125 0.334495 6.45 0.504783 6.45 0.711562C6.45 0.918341 6.38125 1.08863 6.24375 1.22243L5.94375 1.51435H6C7.675 1.51435 9.09375 2.07995 10.2562 3.21115C11.4187 4.34235 12 5.7229 12 7.35281C12 8.67862 11.5938 9.85848 10.7812 10.8924C9.96875 11.9263 8.91875 12.6196 7.63125 12.9723Z" fill="#374151"/>
</svg>
