<svg width="43" height="44" viewBox="0 0 43 44" fill="none" xmlns="http://www.w3.org/2000/svg">
<path d="M19.1118 5.9802V0.65851C19.1118 0.65851 18.5875 0.0115971 18.1239 0.000156204C17.6424 -0.0117284 17.0811 0.65851 17.0811 0.65851V5.9802C17.0811 5.9802 17.6638 6.53923 18.1239 6.52883C18.5651 6.51885 19.1118 5.9802 19.1118 5.9802Z" fill="#FFEF42"/>
<path d="M26.4967 10.026L30.4643 6.4776C30.4643 6.4776 30.5969 5.65561 30.2964 5.30266C29.9842 4.93603 29.1102 4.9648 29.1102 4.9648L25.1426 8.51321C25.1426 8.51321 25.1144 9.32007 25.4289 9.65587C25.7306 9.97792 26.4967 10.026 26.4967 10.026Z" fill="#FFEF42"/>
<path d="M7.22938 27.267L11.1969 23.7185C11.1969 23.7185 11.3296 22.8966 11.029 22.5436C10.7168 22.177 9.84289 22.2057 9.84289 22.2057L5.87533 25.7542C5.87533 25.7542 5.8471 26.561 6.16163 26.8968C6.46328 27.2189 7.22938 27.267 7.22938 27.267Z" fill="#FFEF42"/>
<path d="M2.68237 17.8746L7.95906 17.1684C7.95906 17.1684 8.53092 16.563 8.48075 16.1022C8.42863 15.6236 7.68957 15.1564 7.68957 15.1564L2.41288 15.8626C2.41288 15.8626 1.93591 16.5142 2.00728 16.9686C2.07573 17.4045 2.68237 17.8746 2.68237 17.8746Z" fill="#FFEF42"/>
<path d="M5.55432 6.3809L9.75059 9.65587C9.75059 9.65587 10.5834 9.64082 10.8777 9.28264C11.1834 8.91057 11.0003 8.05586 11.0003 8.05586L6.80402 4.78088C6.80402 4.78088 6.00461 4.89598 5.72968 5.26488C5.46601 5.61867 5.55432 6.3809 5.55432 6.3809Z" fill="#FFEF42"/>
<path d="M20.6481 36.1255C20.6481 36.1255 19.9332 36.1162 19.6072 36.3996C19.3822 36.5951 19.278 36.9028 19.5049 37.1082C19.7085 37.2926 20.0296 37.1963 20.2192 37.0466C20.612 36.7365 20.6481 36.1255 20.6481 36.1255Z" fill="black"/>
<path d="M37.1312 32.0629C37.1312 32.0629 36.4163 32.0536 36.0903 32.3369C35.8653 32.5325 35.7611 32.8402 35.9879 33.0456C36.1916 33.23 36.5127 33.1337 36.7023 32.984C37.0951 32.6739 37.1312 32.0629 37.1312 32.0629Z" fill="black"/>
<path d="M25.9401 27.2278C25.9401 27.2278 25.2252 27.2185 24.8992 27.5019C24.6742 27.6974 24.57 28.0051 24.7969 28.2105C25.0005 28.3949 25.3216 28.2986 25.5112 28.1489C25.904 27.8388 25.9401 27.2278 25.9401 27.2278Z" fill="black"/>
<path d="M30.1016 33.3712C30.1016 33.3712 29.6508 33.7448 29.5205 34.1318C29.5071 34.1718 29.497 34.2119 29.4913 34.2518C29.4488 34.5456 29.5716 34.8465 29.8785 34.8558C30.0591 34.8613 30.1989 34.7426 30.2866 34.5937C30.3328 34.5154 30.3645 34.4288 30.3803 34.3474C30.475 33.8582 30.1016 33.3712 30.1016 33.3712Z" fill="black"/>
<path d="M36.3216 26.1001C36.3216 26.1001 35.7728 26.555 35.7113 26.9807C35.6688 27.2745 35.7916 27.5755 36.0985 27.5847C36.374 27.5931 36.5546 27.3125 36.6003 27.0764C36.695 26.5871 36.3216 26.1001 36.3216 26.1001Z" fill="black"/>
<path d="M21.8 31.4111C21.8 31.4111 21.5468 32.0747 21.7037 32.4756C21.812 32.7523 22.0678 32.9547 22.3398 32.8133C22.584 32.6863 22.6025 32.3539 22.5256 32.1259C22.3662 31.6536 21.8 31.4111 21.8 31.4111Z" fill="black"/>
<path d="M34.2287 35.6444C34.2287 35.6444 34.1317 35.8984 34.095 36.1871C34.0723 36.365 34.0726 36.5561 34.1324 36.709C34.2407 36.9856 34.4964 37.188 34.7685 37.0466C34.9907 36.9311 35.026 36.6454 34.9726 36.4231C34.9673 36.4011 34.9612 36.3798 34.9542 36.3593C34.7948 35.8869 34.2287 35.6444 34.2287 35.6444Z" fill="black"/>
<path d="M18.4129 27.3782C18.4129 27.3782 18.1596 28.0418 18.3166 28.4428C18.3362 28.4928 18.3606 28.5405 18.389 28.584C18.5179 28.7814 18.7298 28.8963 18.9527 28.7804C18.9818 28.7653 19.0078 28.7471 19.0308 28.7266C19.1999 28.5755 19.2062 28.2938 19.1384 28.0931C18.979 27.6207 18.4129 27.3782 18.4129 27.3782Z" fill="black"/>
<path d="M23.969 35.4106C23.969 35.4106 23.7158 36.0743 23.8727 36.4752C23.981 36.7519 24.2367 36.9543 24.5088 36.8128C24.7529 36.6859 24.7715 36.3535 24.6945 36.1255C24.5351 35.6531 23.969 35.4106 23.969 35.4106Z" fill="black"/>
<path d="M27.1632 30.5459C27.1632 30.5459 26.5542 30.9177 26.4315 31.3302C26.3917 31.464 26.3878 31.6046 26.4263 31.7216C26.4697 31.8534 26.5669 31.9551 26.7271 31.9833C26.7573 31.9885 26.7869 31.9901 26.8156 31.9885C27.0456 31.9751 27.2267 31.7537 27.2974 31.5519C27.4621 31.0813 27.1632 30.5459 27.1632 30.5459Z" fill="black"/>
<path d="M33.399 29.1086C33.399 29.1086 32.79 29.4803 32.6673 29.8929C32.5827 30.1776 32.6606 30.4929 32.963 30.5459C33.2344 30.5935 33.4537 30.3416 33.5332 30.1145C33.6979 29.6439 33.399 29.1086 33.399 29.1086Z" fill="black"/>
<path d="M30.4759 26.4959C30.4759 26.4959 29.8669 26.8677 29.7442 27.2802C29.6596 27.5649 29.7375 27.8802 30.0399 27.9333C30.18 27.9578 30.3062 27.9026 30.4065 27.8121C30.5005 27.7274 30.5717 27.6117 30.6101 27.5019C30.7592 27.0757 30.5283 26.5965 30.4833 26.5098C30.4786 26.5007 30.4759 26.4959 30.4759 26.4959Z" fill="black"/>
<path fill-rule="evenodd" clip-rule="evenodd" d="M17.0537 38.1298H18.7551H35.9879H36.7023C36.8516 37.7722 37.0186 37.2926 37.1831 36.709C36.671 36.7422 35.8881 36.6425 34.9726 36.4231C35.026 36.6454 34.9907 36.9311 34.7685 37.0466C34.4964 37.188 34.2407 36.9856 34.1324 36.709C34.0726 36.5561 34.0723 36.365 34.095 36.1871C32.8759 35.8255 31.5187 35.286 30.2866 34.5937C30.1989 34.7426 30.0591 34.8613 29.8785 34.8558C29.5716 34.8465 29.4488 34.5456 29.4913 34.2518C29.497 34.2119 29.5071 34.1718 29.5205 34.1318C28.9781 33.7802 28.4748 33.3968 28.037 32.984C27.6624 32.6307 27.2523 32.2991 26.8156 31.9885C26.7869 31.9901 26.7573 31.9885 26.7271 31.9833C26.5669 31.9551 26.4697 31.8534 26.4263 31.7216C24.186 30.2406 21.3565 29.2717 19.0308 28.7266C19.0078 28.7471 18.9818 28.7653 18.9527 28.7804C18.7298 28.8963 18.5179 28.7814 18.389 28.584C17.4589 28.3888 16.6351 28.2665 15.998 28.2105C15.7692 30.9991 15.8513 34.8323 17.0537 38.1298ZM19.6072 36.3996C19.9332 36.1162 20.6481 36.1255 20.6481 36.1255C20.6481 36.1255 20.612 36.7365 20.2192 37.0466C20.0296 37.1963 19.7085 37.2926 19.5049 37.1082C19.278 36.9028 19.3822 36.5951 19.6072 36.3996ZM16.6664 32.38C16.728 31.9542 17.2768 31.4993 17.2768 31.4993C17.2768 31.4993 17.6501 31.9864 17.5554 32.4756C17.5097 32.7117 17.3292 32.9923 17.0537 32.984C16.7467 32.9747 16.624 32.6738 16.6664 32.38ZM21.7037 32.4756C21.5468 32.0747 21.8 31.4111 21.8 31.4111C21.8 31.4111 22.3662 31.6536 22.5256 32.1259C22.6025 32.3539 22.584 32.6863 22.3398 32.8133C22.0678 32.9547 21.812 32.7523 21.7037 32.4756ZM23.8727 36.4752C23.7158 36.0743 23.969 35.4106 23.969 35.4106C23.969 35.4106 24.5351 35.6531 24.6945 36.1255C24.7715 36.3535 24.7529 36.6859 24.5088 36.8128C24.2367 36.9543 23.981 36.7519 23.8727 36.4752Z" fill="#D44649"/>
<path fill-rule="evenodd" clip-rule="evenodd" d="M34.9726 36.4231C34.9673 36.4011 34.9612 36.3798 34.9542 36.3593C34.7948 35.8869 34.2287 35.6444 34.2287 35.6444C34.2287 35.6444 34.1317 35.8984 34.095 36.1871C34.0723 36.365 34.0726 36.5561 34.1324 36.709C34.2407 36.9856 34.4964 37.188 34.7685 37.0466C34.9907 36.9311 35.026 36.6454 34.9726 36.4231ZM30.2866 34.5937C30.3328 34.5154 30.3645 34.4288 30.3803 34.3474C30.475 33.8582 30.1016 33.3712 30.1016 33.3712C30.1016 33.3712 29.6508 33.7448 29.5205 34.1318C29.5071 34.1718 29.497 34.2119 29.4913 34.2518C29.4488 34.5456 29.5716 34.8465 29.8785 34.8558C30.0591 34.8613 30.1989 34.7426 30.2866 34.5937ZM26.8156 31.9885C27.0456 31.9751 27.2267 31.7537 27.2974 31.5519C27.4621 31.0813 27.1632 30.5459 27.1632 30.5459C27.1632 30.5459 26.5542 30.9177 26.4315 31.3302C26.3917 31.464 26.3878 31.6046 26.4263 31.7216C26.4697 31.8534 26.5669 31.9551 26.7271 31.9833C26.7573 31.9885 26.7869 31.9901 26.8156 31.9885ZM19.0308 28.7266C19.1999 28.5755 19.2062 28.2938 19.1384 28.0931C18.979 27.6207 18.4129 27.3782 18.4129 27.3782C18.4129 27.3782 18.1596 28.0418 18.3166 28.4428C18.3362 28.4928 18.3606 28.5405 18.389 28.584C18.5179 28.7814 18.7298 28.8963 18.9527 28.7804C18.9818 28.7653 19.0078 28.7471 19.0308 28.7266ZM20.6481 36.1255C20.6481 36.1255 19.9332 36.1162 19.6072 36.3996C19.3822 36.5951 19.278 36.9028 19.5049 37.1082C19.7085 37.2926 20.0296 37.1963 20.2192 37.0466C20.612 36.7365 20.6481 36.1255 20.6481 36.1255ZM21.8 31.4111C21.8 31.4111 21.5468 32.0747 21.7037 32.4756C21.812 32.7523 22.0678 32.9547 22.3398 32.8133C22.584 32.6863 22.6025 32.3539 22.5256 32.1259C22.3662 31.6536 21.8 31.4111 21.8 31.4111ZM23.969 35.4106C23.969 35.4106 23.7158 36.0743 23.8727 36.4752C23.981 36.7519 24.2367 36.9543 24.5088 36.8128C24.7529 36.6859 24.7715 36.3535 24.6945 36.1255C24.5351 35.6531 23.969 35.4106 23.969 35.4106ZM37.1312 32.0629C37.1312 32.0629 36.4163 32.0536 36.0903 32.3369C35.8653 32.5325 35.7611 32.8402 35.9879 33.0456C36.1916 33.23 36.5127 33.1337 36.7023 32.984C37.0951 32.6739 37.1312 32.0629 37.1312 32.0629ZM25.9401 27.2278C25.9401 27.2278 25.2252 27.2185 24.8992 27.5019C24.6742 27.6974 24.57 28.0051 24.7969 28.2105C25.0005 28.3949 25.3216 28.2986 25.5112 28.1489C25.904 27.8388 25.9401 27.2278 25.9401 27.2278ZM36.3216 26.1001C36.3216 26.1001 35.7728 26.555 35.7113 26.9807C35.6688 27.2745 35.7916 27.5755 36.0985 27.5847C36.374 27.5931 36.5546 27.3125 36.6003 27.0764C36.695 26.5871 36.3216 26.1001 36.3216 26.1001ZM33.399 29.1086C33.399 29.1086 32.79 29.4803 32.6673 29.8929C32.5827 30.1776 32.6606 30.4929 32.963 30.5459C33.2344 30.5935 33.4537 30.3416 33.5332 30.1145C33.6979 29.6439 33.399 29.1086 33.399 29.1086ZM30.4759 26.4959C30.4759 26.4959 29.8669 26.8677 29.7442 27.2802C29.6596 27.5649 29.7375 27.8802 30.0399 27.9333C30.18 27.9578 30.3062 27.9026 30.4065 27.8121C30.5005 27.7274 30.5717 27.6117 30.6101 27.5019C30.7592 27.0757 30.5283 26.5965 30.4833 26.5098C30.4786 26.5007 30.4759 26.4959 30.4759 26.4959Z" fill="black"/>
<path d="M17.2768 31.4993C17.2768 31.4993 16.728 31.9542 16.6664 32.38C16.624 32.6738 16.7467 32.9747 17.0537 32.984C17.3292 32.9923 17.5097 32.7117 17.5554 32.4756C17.6501 31.9864 17.2768 31.4993 17.2768 31.4993Z" fill="black"/>
<path d="M14.0899 29.7905C14.2216 36.6374 16.3768 42.1164 17.4379 44H23.969C23.03 43.4413 22.1318 42.5236 21.8 42.1347H18.7551L17.7672 40.2145H20.2192C19.0316 39.1416 18.7483 38.3777 18.7551 38.1298H17.0537C15.8513 34.8323 15.7692 30.9991 15.998 28.2105C14.846 26.3422 14.5744 24.4374 14.5826 23.7185C14.2501 25.5768 14.0483 27.6282 14.0899 29.7905Z" fill="#07C3BA"/>
<path d="M30.6101 24.3591L31.2687 17.0623H29.238L28.5794 24.9626C29.4136 24.5674 30.2808 24.3956 30.6101 24.3591Z" fill="#07C3BA"/>
<path fill-rule="evenodd" clip-rule="evenodd" d="M30.6101 24.3591H33.8483C35.2533 24.3591 36.9218 24.7614 37.5804 24.9626C38.5409 29.834 37.885 34.2182 37.1831 36.709C36.671 36.7422 35.8881 36.6425 34.9726 36.4231C34.9673 36.4011 34.9612 36.3798 34.9542 36.3593C34.7948 35.8869 34.2287 35.6444 34.2287 35.6444C34.2287 35.6444 34.1317 35.8984 34.095 36.1871C32.8759 35.8255 31.5187 35.286 30.2866 34.5937C30.3328 34.5154 30.3645 34.4288 30.3803 34.3474C30.475 33.8582 30.1016 33.3712 30.1016 33.3712C30.1016 33.3712 29.6508 33.7448 29.5205 34.1318C28.9781 33.7802 28.4748 33.3968 28.037 32.984C27.6624 32.6307 27.2523 32.2991 26.8156 31.9885C27.0456 31.9751 27.2267 31.7537 27.2974 31.5519C27.4621 31.0813 27.1632 30.5459 27.1632 30.5459C27.1632 30.5459 26.5542 30.9177 26.4315 31.3302C26.3917 31.464 26.3878 31.6046 26.4263 31.7216C24.186 30.2406 21.3565 29.2717 19.0308 28.7266C19.1999 28.5755 19.2062 28.2938 19.1384 28.0931C18.979 27.6207 18.4129 27.3782 18.4129 27.3782C18.4129 27.3782 18.1596 28.0418 18.3166 28.4428C18.3362 28.4928 18.3606 28.5405 18.389 28.584C17.4589 28.3888 16.6351 28.2665 15.998 28.2105C16.095 27.0278 16.2479 26.0329 16.3951 25.3466C16.3951 25.3379 16.4461 25.3651 16.5433 25.4168C17.0585 25.6909 18.8697 26.6546 21.2249 26.6085C23.4642 26.5646 27.0609 25.4929 28.5794 24.9626L28.037 32.8133L30.1016 32.984L30.4065 27.8121C30.5005 27.7274 30.5717 27.6117 30.6101 27.5019C30.7592 27.0757 30.5283 26.5965 30.4833 26.5098L30.6101 24.3591ZM37.1312 32.0629C37.1312 32.0629 36.4163 32.0536 36.0903 32.3369C35.8653 32.5325 35.7611 32.8402 35.9879 33.0456C36.1916 33.23 36.5127 33.1337 36.7023 32.984C37.0951 32.6739 37.1312 32.0629 37.1312 32.0629ZM25.9401 27.2278C25.9401 27.2278 25.2252 27.2185 24.8992 27.5019C24.6742 27.6974 24.57 28.0051 24.7969 28.2105C25.0005 28.3949 25.3216 28.2986 25.5112 28.1489C25.904 27.8388 25.9401 27.2278 25.9401 27.2278ZM36.3216 26.1001C36.3216 26.1001 35.7728 26.555 35.7113 26.9807C35.6688 27.2745 35.7916 27.5755 36.0985 27.5847C36.374 27.5931 36.5546 27.3125 36.6003 27.0764C36.695 26.5871 36.3216 26.1001 36.3216 26.1001ZM33.399 29.1086C33.399 29.1086 32.79 29.4803 32.6673 29.8929C32.5827 30.1776 32.6606 30.4929 32.963 30.5459C33.2344 30.5935 33.4537 30.3416 33.5332 30.1145C33.6979 29.6439 33.399 29.1086 33.399 29.1086Z" fill="#FF4D50"/>
<path d="M30.6101 24.3591C30.2808 24.3956 29.4136 24.5674 28.5794 24.9626L28.037 32.8133L30.1016 32.984L30.4065 27.8121C30.3062 27.9026 30.18 27.9578 30.0399 27.9333C29.7375 27.8802 29.6596 27.5649 29.7442 27.2802C29.8669 26.8677 30.4759 26.4959 30.4759 26.4959C30.4759 26.4959 30.4786 26.5007 30.4833 26.5098L30.6101 24.3591Z" fill="#D44649"/>
<path fill-rule="evenodd" clip-rule="evenodd" d="M23.969 10.9906C22.862 10.6691 20.44 10.7446 19.6072 13.619C19.443 14.1857 19.1039 14.7123 18.6456 15.197H23.8461H25.8378C25.6517 13.5954 24.978 12.1426 23.969 10.9906ZM14.7045 23.0743C12.9598 22.2176 11.5836 20.7259 10.8777 18.9006C12.3572 18.5757 14.7603 17.8237 16.6878 16.6929C16.1623 17.8751 15.5767 19.4704 15.0942 21.3598C14.9543 21.9075 14.8231 22.48 14.7045 23.0743Z" fill="#FFEF42"/>
<path d="M18.1239 8.33916C13.8348 8.33916 10.3578 11.8148 10.3578 16.1022C10.3578 17.0888 10.5419 18.0325 10.8777 18.9006C12.3572 18.5757 14.7603 17.8237 16.6878 16.6929C16.9619 16.0762 17.2196 15.5719 17.4379 15.197H18.6456C19.1039 14.7123 19.443 14.1857 19.6072 13.619C20.44 10.7446 22.862 10.6691 23.969 10.9906C22.5455 9.36544 20.4546 8.33916 18.1239 8.33916Z" fill="#FFF586"/>
<path d="M16.3951 25.3466C16.7902 22.2304 18.1331 18.5253 18.7551 17.0623H19.6072C19.3229 16.5009 18.7325 15.3419 18.6456 15.197H17.4379C17.2196 15.5719 16.9619 16.0762 16.6878 16.6929C16.1623 17.8751 15.5767 19.4704 15.0942 21.3598L14.7045 23.0743C14.6622 23.2863 14.6215 23.5011 14.5826 23.7185C14.5744 24.4374 14.846 26.3422 15.998 28.2105C16.095 27.0278 16.2479 26.0329 16.3951 25.3466Z" fill="#00E9DD"/>
<path d="M36.0985 40.2145L34.8911 42.1347H21.8C22.1318 42.5236 23.03 43.4413 23.969 44H36.0985C36.6183 43.3199 37.3611 42.0301 38.0593 40.2145C38.4983 39.0729 38.9197 37.7235 39.2571 36.1871C38.3812 36.6416 37.5095 36.7244 37.1831 36.709C37.0186 37.2926 36.8516 37.7722 36.7023 38.1298H35.9879H18.7551C18.7483 38.3777 19.0316 39.1416 20.2192 40.2145H36.0985Z" fill="#00E9DD"/>
<path d="M39.9953 29.7905C40.127 22.3292 37.4523 16.9526 36.0985 15.197H31.598L31.9822 11.7955L39.9953 9.65587L39.5013 7.68081L30.171 10.3691L29.5673 15.197H25.8378H23.8461H18.6456C18.7325 15.3419 19.3229 16.5009 19.6072 17.0623H29.238H31.2687H34.8911C36.34 20.0469 37.2877 23.5727 37.5804 24.9626C38.5409 29.834 37.885 34.2182 37.1831 36.709C37.5095 36.7244 38.3812 36.6416 39.2571 36.1871C39.6673 34.3189 39.9532 32.1742 39.9953 29.7905Z" fill="#3CEEDF"/>
</svg>
