<svg width="24" height="24" viewBox="0 0 24 24" fill="none" xmlns="http://www.w3.org/2000/svg">
<path fill-rule="evenodd" clip-rule="evenodd" d="M0.243184 19.6946L9.49106 10.7438L18.7389 1.79307H19.2772H19.8157L21.3255 3.2631L22.8355 4.73326V5.22612V5.71898L17.8205 10.5906C15.0624 13.2698 10.875 17.3278 8.5152 19.6081L4.22483 23.7541H3.62609H3.02723L1.77015 22.5888C1.07863 21.9479 0.397487 21.2278 0.256538 20.9883L0 20.5533L0.121661 20.1239L0.243184 19.6946ZM7.89691 13.8755C4.24371 17.3853 1.25478 20.3163 1.25478 20.3888C1.25478 20.5652 3.44603 22.6528 3.63122 22.6528C3.71121 22.6528 4.97893 21.4722 6.44844 20.0292C7.91782 18.5861 10.885 15.6997 13.0422 13.6147L16.9643 9.82395L15.7516 8.65917L14.5389 7.49426L7.89691 13.8755ZM15.7747 7.21855L17.651 5.41282C18.683 4.41958 19.5409 3.60696 19.5575 3.60696C19.574 3.60696 19.8724 3.89952 20.2207 4.25711C20.6453 4.69322 20.9284 4.88459 21.0802 4.83834C21.2099 4.79882 21.4134 4.88278 21.5567 5.03488L21.8069 5.30049L21.5192 5.57672L21.2316 5.85295L21.0137 5.67921L20.7956 5.50533L19.0842 7.139L17.3729 8.77267L16.7659 8.2298C16.4321 7.93128 16.0725 7.58172 15.9669 7.4528L15.7747 7.21855Z" fill="#3CEEDF"/>
<path fill-rule="evenodd" clip-rule="evenodd" d="M21.2319 11.0433C21.0413 11.8611 20.8844 12.0181 20.0564 12.2201C19.7231 12.3015 19.4593 12.4227 19.4702 12.4897C19.4812 12.5568 19.8306 12.7282 20.2467 12.8708L21.0033 13.1299L21.1921 13.8749C21.4164 14.7601 21.6847 14.844 21.8135 14.0692C21.95 13.2472 22.1891 12.9861 22.9698 12.8061C23.3479 12.7189 23.6363 12.587 23.6105 12.5128C23.5847 12.4385 23.2746 12.3074 22.9215 12.2213C22.1101 12.0233 22.0271 11.9386 21.8322 11.1069C21.7443 10.7321 21.6104 10.4054 21.5344 10.3812C21.4585 10.3568 21.3224 10.6548 21.2319 11.0433ZM21.0974 12.52L21.2583 12.3441C21.3512 12.2425 21.3965 12.1884 21.4499 12.1785C21.5115 12.167 21.5841 12.2144 21.7529 12.3157L22.0154 12.4731L21.7966 12.7054L21.5777 12.9376L21.3376 12.7289L21.0974 12.52Z" fill="#3CEEDF"/>
<path fill-rule="evenodd" clip-rule="evenodd" d="M11.6366 0.918513C11.3968 1.90333 11.3377 1.96759 10.4757 2.18176C10.0455 2.28865 9.7035 2.43013 9.7155 2.49634C9.72764 2.56242 10.103 2.72424 10.5499 2.85601L11.3622 3.09557L11.4939 3.57807C11.5663 3.84329 11.6658 4.2207 11.7151 4.41673C11.8436 4.92812 12.0134 4.85647 12.1757 4.22239C12.4251 3.24833 12.5977 3.0488 13.3905 2.81934C14.0721 2.62202 14.4672 2.31132 14.0366 2.31132C13.9326 2.31132 13.5409 2.22387 13.1661 2.11698L12.4848 1.92263L12.318 1.3072C12.2263 0.968654 12.1232 0.58968 12.0891 0.46504C11.9767 0.0551004 11.8049 0.227291 11.6366 0.918513ZM11.4138 2.5137L11.6837 2.30381L11.9535 2.09379L12.168 2.29979L12.3823 2.50567L12.18 2.70792L11.9777 2.91004L11.6957 2.71194L11.4138 2.5137Z" fill="#3CEEDF"/>
<path fill-rule="evenodd" clip-rule="evenodd" d="M7.25826 2.60284C7.2267 2.69198 7.1339 3.13405 7.0523 3.58519C6.7936 5.01454 6.69312 5.10498 4.83987 5.57814C4.47489 5.6713 4.15577 5.80644 4.13081 5.87822C4.10586 5.95013 4.63 6.16818 5.29563 6.36278L6.50563 6.71662L6.67019 7.00814C6.7607 7.16841 6.93185 7.70726 7.05054 8.20556C7.19527 8.81309 7.33649 9.12456 7.47892 9.15099L7.69136 9.19025L7.85794 8.37452C7.94952 7.92571 8.10382 7.37571 8.20066 7.15221L8.37695 6.74577L9.03084 6.54392C9.39043 6.43288 9.94276 6.27831 10.258 6.20044C11.1422 5.98174 10.9726 5.75513 9.6784 5.42668L8.52572 5.13413L8.32623 4.84183C8.21658 4.68105 8.03422 4.12301 7.92119 3.60178C7.80803 3.08067 7.68461 2.60621 7.64685 2.54752C7.54393 2.38777 7.32368 2.41912 7.25826 2.60284ZM7.16627 5.54173L7.32071 5.12493L7.47528 4.70825L7.66506 5.13374C7.78051 5.39287 8.01912 5.62556 8.27512 5.72896L8.6954 5.89882L8.26338 6.07074C8.00765 6.17245 7.76258 6.39997 7.6625 6.62865L7.49349 7.01475L7.30614 6.63941C7.20323 6.43288 6.92066 6.17414 6.67828 6.06414L6.23763 5.86435L6.70189 5.70304L7.16627 5.54173Z" fill="#3CEEDF"/>
<path fill-rule="evenodd" clip-rule="evenodd" d="M2.61773 0.681801C2.42634 1.50324 2.35122 1.57735 1.4571 1.82663C1.08618 1.93002 0.793356 2.06671 0.806305 2.13058C0.819253 2.19433 1.12273 2.32596 1.4807 2.42301C2.36254 2.66205 2.43929 2.74212 2.62825 3.62108C2.81533 4.49098 3.06864 4.61225 3.20783 3.89848C3.26003 3.63132 3.38277 3.22851 3.48056 3.00345L3.65846 2.59416L4.41244 2.43221C4.82706 2.34307 5.16628 2.20119 5.16628 2.11698C5.16628 2.03276 4.83165 1.89192 4.42269 1.80408L3.6791 1.6442L3.49014 1.29308C3.38614 1.0999 3.25882 0.725333 3.20702 0.460505C3.07187 -0.231495 2.80737 -0.132248 2.61773 0.681801ZM2.46707 2.14017L2.70393 1.91745L2.94077 1.69473L3.17789 1.89452L3.41501 2.09431L3.18976 2.33335L2.96438 2.57252L2.71579 2.35641L2.46707 2.14017Z" fill="#3CEEDF"/>
</svg>
