<svg width="22" height="26" viewBox="0 0 22 26" fill="none" xmlns="http://www.w3.org/2000/svg">
<path fill-rule="evenodd" clip-rule="evenodd" d="M3.04625 0.0507925C2.73454 0.107142 2.46716 0.195468 2.12584 0.354832C1.02748 0.867729 0.258252 1.88436 0.0495901 3.09893L0 3.38753V12.9061C0 19.4454 0.0108864 22.5222 0.0347391 22.7363C0.220783 24.4047 1.559 25.7613 3.21741 25.9625L3.5259 26L12.4138 25.9903L21.3016 25.9805L21.4363 25.9085C21.6192 25.8107 21.7968 25.5946 21.8548 25.3992L21.9028 25.2376V12.9981V0.758573L21.8523 0.588257C21.7887 0.374363 21.613 0.175613 21.3991 0.075815L21.2367 0L12.2675 0.00259974L3.29842 0.00516699L3.04625 0.0507925ZM3.29842 2.7671C3.29842 2.7671 2.67011 2.7671 2.54089 3.16005C2.51254 3.24627 2.49332 3.38753 2.49332 3.38753L2.49273 11.2595L2.49218 19.1314C2.49218 19.1314 2.64063 18.6396 3.05365 18.6396H3.23343L11.7395 18.6291L19.0667 18.5458V10.0649V2.69068L11.837 2.7671C6.78263 2.76928 3.29842 2.7671 3.29842 2.7671ZM10.5554 4.77667C9.8319 4.89155 9.10534 5.2859 8.7093 5.77871L8.60716 5.9058L8.387 5.92751C8.08013 5.95773 7.49847 6.16396 7.21058 6.34461C6.54154 6.76437 6.05493 7.43263 5.87974 8.17229L5.81046 8.46476L5.81338 8.82668C5.81897 9.5228 6.00635 10.0843 6.41386 10.626C6.68605 10.9878 7.12092 11.3431 7.49308 11.5077L7.63346 11.5698L7.64325 13.2345L7.65299 14.8991L7.74298 15.0699C7.85415 15.2808 8.07786 15.4522 8.30452 15.5001C8.41491 15.5234 9.31319 15.5317 11.0505 15.5256L13.6324 15.5166L13.8111 15.4163C14.0246 15.2967 14.1798 15.0869 14.2308 14.8493C14.2534 14.7438 14.2661 14.125 14.2661 13.1256V11.5666L14.3504 11.5346C14.7053 11.3996 15.2797 10.9256 15.55 10.5446C16.1904 9.64183 16.2654 8.49333 15.7495 7.49071C15.4648 6.93742 15.0059 6.48919 14.4362 6.20793C14.1746 6.07879 13.7556 5.95237 13.5034 5.92654L13.2896 5.90463L13.1606 5.75057C12.8922 5.43002 12.4098 5.09644 11.9913 4.94205C11.5651 4.78483 10.9502 4.71402 10.5554 4.77667ZM10.6914 6.42913C10.5257 6.46485 10.2366 6.60728 10.1124 6.71442C10.053 6.76557 9.9214 6.93121 9.81988 7.08248L9.6353 7.3575L9.47538 7.45619L9.3155 7.55485L8.85794 7.5724L8.40042 7.58995L8.2146 7.67574C7.95635 7.79497 7.72312 8.02339 7.59583 8.28181L7.49051 8.49564L7.4792 8.77911L7.46792 9.06258L7.52444 9.23487C7.67857 9.70484 8.04374 10.0192 8.54139 10.1103C8.88423 10.1731 9.12812 10.3565 9.24699 10.641L9.29408 10.7537V12.3146V13.8755H10.9514H12.6088V12.3177C12.6088 11.3037 12.6207 10.7281 12.6431 10.6685C12.7532 10.3748 12.9857 10.1899 13.3346 10.1185C13.8016 10.023 14.1268 9.78085 14.312 9.39092L14.4123 9.17969V8.83848V8.49726L14.3215 8.31229C14.1871 8.03854 13.9734 7.81853 13.7215 7.69453L13.5061 7.58846L13.033 7.57165L12.56 7.55485L12.4138 7.45665C12.32 7.39361 12.2011 7.25969 12.0822 7.08294C11.8619 6.75527 11.7505 6.65258 11.4792 6.52701L11.2759 6.43284L11.0405 6.41873C10.9111 6.41097 10.754 6.41565 10.6914 6.42913ZM3.38171 20.3153C2.63416 20.4221 2.37129 20.9666 2.37129 21.8206L2.36979 22.1157L2.37129 22.4569C2.37304 22.8457 2.31978 23.3724 2.49218 23.7017C2.76629 24.2254 2.7323 24.2008 3.31097 24.3072C3.4237 24.328 6.46936 24.3394 11.8657 24.3394L19.0667 24.2667V23.6655V23.0643L13.6893 23.1369C9.27309 23.1368 7.09353 23.1257 7.01199 23.1031C6.82082 23.05 6.62333 22.8805 6.52373 22.6842L6.43436 22.508L6.43508 22.3107C6.43625 21.9857 6.62343 21.69 6.9148 21.5528L7.03555 21.496L13.6405 21.4875L19.0667 21.4062V20.8054V20.2046L11.9182 20.2813C7.04891 20.2837 3.50403 20.2978 3.38171 20.3153Z" fill="white"/>
</svg>
