<svg width="13" height="15" viewBox="0 0 13 15" fill="none" xmlns="http://www.w3.org/2000/svg">
<path fill-rule="evenodd" clip-rule="evenodd" d="M1.75745 0.0293034C1.57762 0.0618126 1.42336 0.11277 1.22645 0.204711C0.592779 0.500613 0.148992 1.08713 0.0286097 1.78784L0 1.95434V7.44583C0 11.2185 0.00628063 12.9936 0.0200418 13.1171C0.127375 14.0796 0.899424 14.8623 1.8562 14.9784L2.03417 15L7.16179 14.9944L12.2894 14.9888L12.3671 14.9472C12.4726 14.8908 12.5751 14.7661 12.6086 14.6534L12.6363 14.5601V7.49889V0.437638L12.6071 0.339379C12.5704 0.215979 12.469 0.101315 12.3457 0.0437394L12.2519 0L7.07743 0.00149985L1.90294 0.00298096L1.75745 0.0293034ZM1.90294 1.5964C1.90294 1.5964 1.54045 1.5964 1.4659 1.82311C1.44954 1.87285 1.43845 1.95434 1.43845 1.95434L1.43811 6.49584L1.4378 11.0373C1.4378 11.0373 1.52344 10.7536 1.76172 10.7536H1.86544L6.77277 10.7476L11 10.6995V5.80665V1.55232L6.82901 1.5964C3.91306 1.59766 1.90294 1.5964 1.90294 1.5964ZM6.08966 2.75577C5.67225 2.82205 5.25308 3.04955 5.0246 3.33387L4.96567 3.40719L4.83865 3.41972C4.66161 3.43715 4.32604 3.55613 4.15995 3.66035C3.77396 3.90252 3.49323 4.28806 3.39216 4.71478L3.35219 4.88352L3.35387 5.09232C3.3571 5.49392 3.4652 5.81785 3.7003 6.13036C3.85734 6.33911 4.10823 6.54408 4.32293 6.63906L4.40392 6.67489L4.40956 7.63528L4.41519 8.59565L4.4671 8.69415C4.53124 8.81587 4.6603 8.91475 4.79107 8.94234C4.85476 8.9558 5.37299 8.96062 6.37529 8.9571L7.86485 8.95187L7.96796 8.89405C8.0911 8.825 8.18068 8.70396 8.21008 8.56691C8.22313 8.50604 8.23044 8.14901 8.23044 7.57249V6.67303L8.27905 6.65456C8.48382 6.5767 8.81519 6.30322 8.97114 6.0834C9.34059 5.56259 9.38388 4.9 9.08623 4.32156C8.92198 4.00235 8.65726 3.74376 8.32858 3.5815C8.17768 3.50699 7.93592 3.43406 7.7904 3.41916L7.66707 3.40652L7.59264 3.31763C7.43782 3.1327 7.15949 2.94025 6.91807 2.85118C6.67217 2.76048 6.31745 2.71963 6.08966 2.75577ZM6.16814 3.70911C6.07252 3.72972 5.90574 3.81189 5.83405 3.87371C5.79981 3.90321 5.72388 3.99877 5.66532 4.08605L5.55883 4.24471L5.46657 4.30165L5.37433 4.35857L5.11035 4.36869L4.8464 4.37882L4.73919 4.42831C4.5902 4.4971 4.45565 4.62888 4.38221 4.77797L4.32145 4.90133L4.31492 5.06487L4.30842 5.22841L4.34102 5.32781C4.42994 5.59895 4.64062 5.78032 4.92773 5.83287C5.12552 5.86907 5.26622 5.9749 5.3348 6.13904L5.36197 6.20406V7.10457V8.00508H6.31813H7.27428V7.10639C7.27428 6.52138 7.2812 6.18929 7.29408 6.15492C7.35764 5.98548 7.49176 5.8788 7.69306 5.83761C7.96249 5.78247 8.1501 5.6428 8.25693 5.41784L8.3148 5.29598V5.09912V4.90227L8.2624 4.79555C8.18484 4.63762 8.06155 4.51069 7.91624 4.43915L7.79195 4.37795L7.51906 4.36826L7.24616 4.35857L7.16179 4.30191C7.10767 4.26554 7.03912 4.18828 6.97052 4.08631C6.84339 3.89727 6.77912 3.83803 6.62263 3.76558L6.50533 3.71125L6.36953 3.70312C6.29486 3.69863 6.20423 3.70133 6.16814 3.70911ZM1.95099 11.7203C1.51971 11.782 1.36805 12.0961 1.36805 12.5888L1.36719 12.759L1.36805 12.9559C1.36906 13.1802 1.33834 13.4841 1.4378 13.6741C1.59594 13.9762 1.57633 13.962 1.91017 14.0234C1.97521 14.0354 3.73232 14.042 6.84562 14.042L11 14V13.6532V13.3063L7.89766 13.3482C5.34986 13.3481 4.09242 13.3418 4.04538 13.3287C3.93509 13.2981 3.82115 13.2003 3.76369 13.087L3.71213 12.9854L3.71255 12.8716C3.71322 12.6841 3.82121 12.5135 3.98931 12.4343L4.05897 12.4015L7.86953 12.3966L11 12.3497V12.0031V11.6565L6.87588 11.7008C4.06668 11.7021 2.02156 11.7103 1.95099 11.7203Z" fill="black"/>
</svg>
