<svg width="27" height="26" viewBox="0 0 27 26" fill="none" xmlns="http://www.w3.org/2000/svg">
<path fill-rule="evenodd" clip-rule="evenodd" d="M13.6789 6.71812C17.2338 6.81185 20.118 9.53061 20.118 13C20.118 16.4694 17.2338 19.1881 13.6789 19.2819C10.0238 19.3782 6.88198 16.5671 6.88198 13C6.88198 9.43293 10.0238 6.62174 13.6789 6.71812ZM17.6139 13C17.5195 10.8818 15.8501 9.25316 13.6789 9.16107C11.4068 9.06469 9.48489 10.7834 9.3861 13C9.28312 15.3107 11.3103 17.2884 13.6789 17.1879C15.9509 17.0915 17.7127 15.2165 17.6139 13Z" fill="white"/>
<path d="M8.04858 5.94194L5.5301 3.46343C4.77457 2.7199 3.25024 4.19408 4.00577 4.93762L6.52425 7.41611C7.2798 8.15967 8.80413 6.68549 8.04858 5.94194Z" fill="white"/>
<path d="M14.7521 4.27516V0.785224C14.7521 -0.261739 12.6057 -0.261743 12.6057 0.785224V4.27516C12.6057 5.32215 14.7521 5.32215 14.7521 4.27516Z" fill="white"/>
<path d="M21.623 3.52251L19.0448 5.94193C18.2714 6.66775 19.7594 8.17685 20.5328 7.45103L23.111 5.0316C23.8844 4.30576 22.3964 2.79667 21.623 3.52251Z" fill="white"/>
<path d="M26.1908 11.59L22.6135 11.604C21.5403 11.6083 21.549 13.7022 22.6221 13.698L26.1994 13.6839C27.2726 13.6797 27.264 11.5857 26.1908 11.59Z" fill="white"/>
<path d="M23.1473 20.5761L20.6288 18.0976C19.8733 17.3541 18.3489 18.8283 19.1045 19.5718L21.623 22.0503C22.3785 22.7938 23.9028 21.3197 23.1473 20.5761Z" fill="white"/>
<path d="M14.7521 25.2148V21.7248C14.7521 20.6779 12.6057 20.6779 12.6057 21.7248V25.2148C12.6057 26.2617 14.7521 26.2617 14.7521 25.2148Z" fill="white"/>
<path d="M6.56058 18.1218L3.98245 20.5412C3.20903 21.267 4.69702 22.7761 5.47045 22.0503L8.04858 19.6309C8.82203 18.905 7.33403 17.3959 6.56058 18.1218Z" fill="white"/>
<path d="M4.37783 11.5899L0.800557 11.604C-0.272609 11.6083 -0.263949 13.7022 0.809222 13.698L4.3865 13.6839C5.4597 13.6797 5.45103 11.5857 4.37783 11.5899Z" fill="white"/>
</svg>
