<svg width="26" height="24" viewBox="0 0 26 24" fill="none" xmlns="http://www.w3.org/2000/svg">
<path fill-rule="evenodd" clip-rule="evenodd" d="M10.9252 1.4449C10.9252 0.868078 10.9958 0.479126 11.1352 0.288019L11.3451 0H13.7384H16.1316L16.2934 0.155478C16.3911 0.249282 16.4553 0.70366 16.4553 1.30108V2.29108L17.0285 2.45433C17.3437 2.54398 18.0473 2.81425 18.5918 3.05485C23.7815 5.34736 26.2795 11.0032 24.4578 16.3366L24.1221 17.3198L24.4697 17.8119C26.2431 20.3221 23.6125 23.4784 20.6848 22.3532L20.1401 22.1439L19.1255 22.6695C18.5674 22.9587 17.6625 23.3473 17.1144 23.5331L16.1181 23.8708L14.1538 23.9353L12.1896 24L11.0516 23.7278C10.4258 23.578 9.29467 23.1622 8.53813 22.8037L7.16263 22.1519L6.03127 21.1232C5.40907 20.5574 4.60991 19.6792 4.25544 19.1717C3.66332 18.3238 2.70595 16.3524 2.70002 15.9687L2.69759 15.8068H1.51065C0.767328 15.8068 0.263284 15.7487 0.161855 15.6513L0 15.4958V13.2143V10.9329L0.168599 10.7174L0.337198 10.5019L1.46304 10.4659L2.58887 10.4299L2.8879 9.52294C3.97557 6.22359 6.87683 3.44432 10.2027 2.51548L10.9252 2.31375V1.4449ZM10.017 3.68894C7.49309 4.56958 5.18746 6.75896 4.16629 9.24477C3.95709 9.75408 3.78377 10.2437 3.78121 10.3327C3.77811 10.4447 4.02493 10.4947 4.58118 10.4947H5.38573L5.52533 10.7452C5.70337 11.0649 5.71012 15.028 5.53343 15.4744L5.40192 15.8068H4.64201H3.88223L3.97139 16.1631C4.15482 16.8959 5.15091 18.6193 5.83421 19.3864C6.86428 20.5425 7.85564 21.3027 9.09208 21.885C10.5148 22.555 11.4991 22.7987 13.1563 22.8915L14.5106 22.9672L15.6515 22.7456C16.8482 22.513 18.4586 21.9265 18.9991 21.5264L19.3174 21.2907L19.0711 20.8485C18.9048 20.5501 18.8248 20.1324 18.8253 19.5641L18.8257 18.722L19.1194 18.1852C19.5505 17.3981 20.4009 16.754 21.2505 16.5713L21.9642 16.4179L22.5441 16.5593L23.1243 16.7008L23.2229 16.5474C23.4628 16.1745 23.8932 14.2895 23.9613 13.3129L24.036 12.2438L23.7587 10.9481L23.4816 9.6525L22.8491 8.44742C22.0851 6.99165 20.8054 5.61257 19.3511 4.67842C18.4156 4.07724 17.0915 3.49822 16.6525 3.49822H16.4553V4.33585V5.17348L16.1944 5.30758C16.0438 5.38493 14.9614 5.44168 13.6348 5.44168H11.3361L11.1137 5.1157L10.8914 4.78958L10.9563 4.14008C10.992 3.78274 10.9844 3.46907 10.9395 3.44303C10.8946 3.41699 10.4795 3.52763 10.017 3.68894ZM11.6499 7.80894C11.9561 7.49889 12.4494 7.16255 12.7461 7.06175C13.4983 6.80599 14.1283 6.8284 14.8343 7.13599C15.6503 7.49151 15.8982 7.72459 16.2708 8.48643C16.7923 9.55299 16.6367 10.6114 15.824 11.5233L15.3711 12.0315L16.1932 12.4525C16.6453 12.684 17.2307 13.1107 17.4939 13.4008C18.4642 14.4699 19.1793 16.5387 18.7503 17.0353L18.5803 17.232L13.7075 17.23C11.0273 17.2289 8.74976 17.1764 8.64604 17.1133L8.45748 16.9986L8.53139 16.2159C8.67881 14.6534 9.8238 13.0454 11.2232 12.4355C11.6157 12.2644 11.9627 12.107 11.9944 12.0856C12.0261 12.0642 11.8965 11.887 11.7063 11.6918C10.9723 10.9382 10.7181 10.0536 10.9442 9.04044L11.0934 8.37267L11.6499 7.80894ZM9.7565 15.7189C9.93468 14.6642 11.1485 13.4245 12.3233 13.0975C12.5558 13.0327 13.2013 12.9758 13.7577 12.9709L14.7693 12.9621L15.3762 13.2255C15.7101 13.3703 16.216 13.7042 16.5006 13.9676C17.0608 14.4859 17.6692 15.5086 17.6692 15.9321V16.1955H13.6726H9.67598L9.7565 15.7189ZM13.2657 8.05446C13.032 8.11419 12.6526 8.36904 12.4227 8.62078L12.0043 9.07853V9.66947C12.0043 9.99442 12.1035 10.4217 12.2249 10.619C12.9074 11.729 14.7047 11.6344 15.2859 10.458C15.561 9.90087 15.5686 9.58202 15.3201 9.01064C15.0068 8.29053 14.0621 7.85079 13.2657 8.05446ZM12.1131 2.77435C12.0903 1.87738 12.0826 1.13329 12.096 1.1206C12.1754 1.04584 13.8215 1.03495 14.5333 1.1044L15.3762 1.18667V2.79598V4.40517H13.7654H12.1545L12.1131 2.77435ZM1.10857 13.1144L1.14647 14.7055L2.79187 14.7418L4.43726 14.7782L4.50578 14.3531C4.54341 14.1193 4.56162 13.4034 4.54638 12.762L4.51846 11.596L2.79456 11.5597L1.07067 11.5234L1.10857 13.1144ZM20.5464 18.0269C20.6688 17.9297 20.9971 17.7742 21.276 17.6814C22.256 17.3555 23.2363 17.7596 23.7176 18.6881L24.0335 19.2977L23.938 19.8406C23.8735 20.2073 23.6794 20.5515 23.3403 20.9008L22.838 21.4181L22.0826 21.4782L21.3273 21.5384L20.8565 21.2589C20.3538 20.9606 19.8252 20.0833 19.8302 19.5556C19.834 19.1564 20.2544 18.259 20.5464 18.0269Z" fill="#3CEEDF"/>
</svg>
